<svg width="149" height="86" viewBox="0 0 149 86" fill="none" xmlns="http://www.w3.org/2000/svg">
<circle cx="6" cy="-1" r="3" fill="white" fill-opacity="0.2"/>
<circle cx="20" cy="-1" r="3" fill="white" fill-opacity="0.2"/>
<circle cx="34" cy="-1" r="3" fill="white" fill-opacity="0.2"/>
<circle cx="6" cy="13" r="3" fill="white" fill-opacity="0.2"/>
<circle cx="20" cy="13" r="3" fill="white" fill-opacity="0.2"/>
<circle cx="34" cy="13" r="3" fill="white" fill-opacity="0.2"/>
<circle cx="6" cy="27" r="3" fill="white" fill-opacity="0.2"/>
<circle cx="20" cy="27" r="3" fill="white" fill-opacity="0.2"/>
<circle cx="34" cy="27" r="3" fill="white" fill-opacity="0.2"/>
<circle cx="6" cy="41" r="3" fill="white" fill-opacity="0.2"/>
<circle cx="20" cy="41" r="3" fill="white" fill-opacity="0.2"/>
<circle cx="34" cy="41" r="3" fill="white" fill-opacity="0.2"/>
<circle cx="6" cy="55" r="3" fill="white" fill-opacity="0.2"/>
<circle cx="20" cy="55" r="3" fill="white" fill-opacity="0.2"/>
<circle cx="34" cy="55" r="3" fill="white" fill-opacity="0.2"/>
<circle cx="6" cy="69" r="3" fill="white" fill-opacity="0.2"/>
<circle cx="20" cy="69" r="3" fill="white" fill-opacity="0.2"/>
<circle cx="34" cy="69" r="3" fill="white" fill-opacity="0.2"/>
<circle cx="6" cy="83" r="3" fill="white" fill-opacity="0.2"/>
<circle cx="20" cy="83" r="3" fill="white" fill-opacity="0.2"/>
<circle cx="34" cy="83" r="3" fill="white" fill-opacity="0.2"/>
<circle cx="48" cy="-1" r="3" fill="white" fill-opacity="0.2"/>
<circle cx="62" cy="-1" r="3" fill="white" fill-opacity="0.2"/>
<circle cx="76" cy="-1" r="3" fill="white" fill-opacity="0.2"/>
<circle cx="90" cy="-1" r="3" fill="white" fill-opacity="0.2"/>
<circle cx="104" cy="-1" r="3" fill="white" fill-opacity="0.2"/>
<circle cx="118" cy="-1" r="3" fill="white" fill-opacity="0.2"/>
<circle cx="132" cy="-1" r="3" fill="white" fill-opacity="0.2"/>
<circle cx="146" cy="-1" r="3" fill="white" fill-opacity="0.2"/>
<circle cx="48" cy="13" r="3" fill="white" fill-opacity="0.2"/>
<circle cx="62" cy="13" r="3" fill="white" fill-opacity="0.2"/>
<circle cx="76" cy="13" r="3" fill="white" fill-opacity="0.2"/>
<circle cx="90" cy="13" r="3" fill="white" fill-opacity="0.2"/>
<circle cx="104" cy="13" r="3" fill="white" fill-opacity="0.2"/>
<circle cx="118" cy="13" r="3" fill="white" fill-opacity="0.2"/>
<circle cx="132" cy="13" r="3" fill="white" fill-opacity="0.2"/>
<circle cx="146" cy="13" r="3" fill="white" fill-opacity="0.2"/>
<circle cx="48" cy="27" r="3" fill="white" fill-opacity="0.2"/>
<circle cx="62" cy="27" r="3" fill="white" fill-opacity="0.2"/>
<circle cx="76" cy="27" r="3" fill="white" fill-opacity="0.2"/>
<circle cx="90" cy="27" r="3" fill="white" fill-opacity="0.2"/>
<circle cx="104" cy="27" r="3" fill="white" fill-opacity="0.2"/>
<circle cx="118" cy="27" r="3" fill="white" fill-opacity="0.2"/>
<circle cx="132" cy="27" r="3" fill="white" fill-opacity="0.2"/>
<circle cx="146" cy="27" r="3" fill="white" fill-opacity="0.2"/>
<circle cx="48" cy="41" r="3" fill="white" fill-opacity="0.2"/>
<circle cx="62" cy="41" r="3" fill="white" fill-opacity="0.2"/>
<circle cx="76" cy="41" r="3" fill="white" fill-opacity="0.2"/>
<circle cx="90" cy="41" r="3" fill="white" fill-opacity="0.2"/>
<circle cx="104" cy="41" r="3" fill="white" fill-opacity="0.2"/>
<circle cx="118" cy="41" r="3" fill="white" fill-opacity="0.2"/>
<circle cx="132" cy="41" r="3" fill="white" fill-opacity="0.2"/>
<circle cx="146" cy="41" r="3" fill="white" fill-opacity="0.2"/>
<circle cx="48" cy="55" r="3" fill="white" fill-opacity="0.2"/>
<circle cx="62" cy="55" r="3" fill="white" fill-opacity="0.2"/>
<circle cx="76" cy="55" r="3" fill="white" fill-opacity="0.2"/>
<circle cx="90" cy="55" r="3" fill="white" fill-opacity="0.2"/>
<circle cx="104" cy="55" r="3" fill="white" fill-opacity="0.2"/>
<circle cx="118" cy="55" r="3" fill="white" fill-opacity="0.2"/>
<circle cx="132" cy="55" r="3" fill="white" fill-opacity="0.2"/>
<circle cx="146" cy="55" r="3" fill="white" fill-opacity="0.2"/>
<circle cx="48" cy="69" r="3" fill="white" fill-opacity="0.2"/>
<circle cx="62" cy="69" r="3" fill="white" fill-opacity="0.2"/>
<circle cx="76" cy="69" r="3" fill="white" fill-opacity="0.2"/>
<circle cx="90" cy="69" r="3" fill="white" fill-opacity="0.2"/>
<circle cx="104" cy="69" r="3" fill="white" fill-opacity="0.2"/>
<circle cx="118" cy="69" r="3" fill="white" fill-opacity="0.2"/>
<circle cx="132" cy="69" r="3" fill="white" fill-opacity="0.2"/>
<circle cx="146" cy="69" r="3" fill="white" fill-opacity="0.2"/>
<circle cx="48" cy="83" r="3" fill="white" fill-opacity="0.2"/>
<circle cx="62" cy="83" r="3" fill="white" fill-opacity="0.2"/>
<circle cx="76" cy="83" r="3" fill="white" fill-opacity="0.2"/>
<circle cx="90" cy="83" r="3" fill="white" fill-opacity="0.2"/>
<circle cx="104" cy="83" r="3" fill="white" fill-opacity="0.2"/>
<circle cx="118" cy="83" r="3" fill="white" fill-opacity="0.2"/>
<circle cx="132" cy="83" r="3" fill="white" fill-opacity="0.2"/>
<circle cx="146" cy="83" r="3" fill="white" fill-opacity="0.2"/>
</svg>
